<svg viewBox="0 0 36 36" xmlns="http://www.w3.org/2000/svg"><path d="m0 24h36v-12h-36zm21.25-8.298 1.032 1.42 1.67-.542-1.032 1.42 1.032 1.42-1.67-.542-1.032 1.42v-1.756l-1.67-.542 1.67-.543zm-3.25-.952c.902 0 1.718.368 2.307.961-.464-.335-1.033-.535-1.649-.535-1.56 0-2.824 1.264-2.824 2.824s1.264 2.824 2.824 2.824c.617 0 1.185-.2 1.649-.535-.589.593-1.405.961-2.307.961-1.795 0-3.25-1.455-3.25-3.25s1.455-3.25 3.25-3.25z" fill="#121212"/><path d="m32 5h-28c-2.209 0-4 1.791-4 4v3h36v-3c0-2.209-1.791-4-4-4z" fill="#a62e38"/><path d="m32 31h-28c-2.209 0-4-1.791-4-4v-3h36v3c0 2.209-1.791 4-4 4z" fill="#38784a"/><g fill="#ebebeb"><path d="m18 21.25c.902 0 1.718-.368 2.307-.961-.464.335-1.033.535-1.649.535-1.56 0-2.824-1.264-2.824-2.824s1.264-2.824 2.824-2.824c.617 0 1.185.2 1.649.535-.589-.593-1.405-.961-2.307-.961-1.795 0-3.25 1.455-3.25 3.25s1.455 3.25 3.25 3.25z"/><path d="m21.25 18.542v1.756l1.032-1.42 1.67.542-1.032-1.42 1.032-1.42-1.67.542-1.032-1.42v1.755l-1.67.543z"/></g></svg>