<svg viewBox="0 0 36 36" xmlns="http://www.w3.org/2000/svg"><circle cx="18" cy="18" fill="#dcc387" r="18"/><path d="m0 18c0 9.941 8.059 18 18 18 .295 0 .58-.029.87-.043 5.891-2.564 10.13-9.625 10.13-17.957 0-8.331-4.239-15.393-10.13-17.956-.29-.014-.575-.044-.87-.044-9.941 0-18 8.059-18 18z" fill="#636a6f"/><g fill="#596067"><circle cx="10.5" cy="8.5" r="3.5"/><circle cx="20" cy="16" r="3"/><circle cx="21.5" cy="27.5" r="3.5"/><circle cx="21" cy="6" r="2"/><circle cx="3" cy="18" r="1"/></g><circle cx="30" cy="9" fill="#d1b160" r="1"/><circle cx="15" cy="31" fill="#596067" r="1"/><circle cx="32" cy="19" fill="#d1b160" r="2"/><circle cx="10" cy="23" fill="#596067" r="2"/></svg>