<svg viewBox="0 0 36 36" xmlns="http://www.w3.org/2000/svg"><path d="m36 20.363c-1.352-.426-3.842-2.363-6-2.363-3 0-3-8-4-10s-3-4-3-5-3-2-8 0-8 2-10 2-3 2-4 4 0 2 0 2c1 1 2-2 4-3s3 1 5 0c1.493-.747 4.658.179 7-.136.794-.107 1.493-.357 2-.864 0 0 0 8 2 11 0 0-1 1-2 4s-2 0-2-2-1-5-5-7c-1.789-.894-5.658-.683-7 2-2 4 0 8 2 9s3 2 7 2c1.943 0 17.812.48 22 .364z" fill="#e2cdbf"/><path d="m8.182 16.405c2.186-1.941 5.633-1.688 8.025.472-.717-1.373-2.006-2.776-4.207-3.877-1.789-.894-5.658-.683-7 2-2 4 0 8 2 9 .239.119.463.239.681.356-1.814-2.621-1.665-6.025.501-7.951z" fill="#ac4955"/><path d="m12 18.5c-.128 0-.256-.049-.354-.146-.195-.195-.195-.512 0-.707 1.134-1.134 2.305-1.147 2.354-1.147.276 0 .5.224.5.5s-.224.5-.5.5c-.028 0-.821.028-1.646.854-.098.097-.226.146-.354.146zm-4 3c-.128 0-.256-.049-.354-.146-.195-.195-.195-.512 0-.707 1.134-1.134 2.305-1.147 2.354-1.147.276 0 .5.224.5.5s-.224.5-.5.5c-.028.001-.821.028-1.646.854-.098.097-.226.146-.354.146z" fill="#c5a191"/><path d="m22.017 25.438h13.983v-5.074s-1.958-1.197-3.542-1.717c-1.25 2.125-8 3.104-12.333.651 0 0-.875 1.828-1.083 2.578 0 0 1.377.513 1.833.958.543.529 1.143 1.234 1.142 2.604z" fill="#ac4955"/><g fill="#649bc5"><path d="m0 24h36v12h-36z"/><path d="m6 24c3-2 7-5 6-3s-1.001 3 1 2c2-1 5-2 4 0s2 1 3 0 4 0 3 1-9 2-12 2-5-2-5-2z"/></g></svg>