<svg viewBox="0 0 36 36" xmlns="http://www.w3.org/2000/svg"><path d="m17 34c0 1.104.896 2 2 2h14c1.104 0 2-.896 2-2v-16c0-1.104-.896-2-2-2h-14c-1.104 0-2 .896-2 2z" fill="#9fa9af"/><path d="m33 16h-10v2h12c0-1.104-.896-2-2-2z" fill="#272a2c"/><path d="m3 30h30v4h-30z" fill="#517998"/><path d="m3 16c-1.104 0-2 .896-2 2v16c0 1.104.896 2 2 2h20v-20z" fill="#bdc5ca"/><path d="m3 16c-1.104 0-2 .896-2 2h22v-2z" fill="#636a6f"/><path d="m3 20h4v4h-4zm14 0h4v4h-4zm-7 0h4v4h-4z" fill="#649bc5"/><path d="m29 20h4v4h-4zm-6 0h4v4h-4z" fill="#517998"/><path d="m3 30h18v6h-18z" fill="#649bc5"/><path d="m7 30h10v6h-10z" fill="#517998"/><path d="m1 26h22v4h-22z" fill="#ac4955"/><path d="m7 27h10v2h-10z" fill="#daa4af"/><path d="m9 27h6v2h-6z" fill="#ebebeb"/><path d="m23 26h12v4h-12z" fill="#73222f"/><path d="m5 14h2v2h-2zm12 0h2v2h-2z" fill="#272a2c"/><path d="m21 12c0 1.104-.896 2-2 2h-14c-1.104 0-2-.896-2-2v-10c0-1.104.896-2 2-2h14c1.104 0 2 .896 2 2z" fill="#ac4955"/><path d="m10.561 10.151c.616 0 1.093.28 1.093.925 0 .644-.477.924-1.009.924h-4.678c-.617 0-1.093-.28-1.093-.924 0-.294.182-.546.322-.714 1.163-1.387 2.424-2.648 3.489-4.189.252-.364.49-.798.49-1.303 0-.574-.434-1.079-1.009-1.079-1.611 0-.84 2.269-2.185 2.269-.672 0-1.022-.476-1.022-1.022 0-1.765 1.569-3.18 3.292-3.18s3.109 1.135 3.109 2.914c0 1.947-2.171 3.88-3.362 5.379zm2.363-.35c-.687 0-.981-.462-.981-.826 0-.309.112-.477.196-.617l3.138-5.687c.308-.56.7-.813 1.429-.813.812 0 1.611.519 1.611 1.793v4.3h.238c.546 0 .98.364.98.925 0 .56-.434.924-.98.924h-.238v1.19c0 .743-.295 1.093-1.009 1.093s-1.008-.35-1.008-1.093v-1.19h-3.376zm3.376-5.757h-.028l-1.891 3.908h1.919z" fill="#ebebeb"/></svg>