<svg viewBox="0 0 36 36" xmlns="http://www.w3.org/2000/svg"><path fill="#d1b160" d="M14 34c0 1.104.896 2 2 2h18c1.104 0 2-.896 2-2V14c0-1.104-.896-2-2-2H16c-1.104 0-2 .896-2 2v20z"/><path fill="#adafb0" d="M34 12H20v2h16c0-1.104-.896-2-2-2z"/><path fill="#649bc5" d="M20 16h14v20H20z"/><path fill="#e6d4ac" d="M18 0H2C.896 0 0 .896 0 2v32c0 1.104.896 2 2 2h18V2c0-1.104-.896-2-2-2z"/><path fill="#adafb0" d="M18 0H2C.896 0 0 .896 0 2h20c0-1.104-.896-2-2-2z"/><path fill="#649bc5" d="M2 22h16v4H2zm0-6h16v4H2zm0-6h16v4H2zm0-6h16v4H2zm0 24h16v8H2z"/><path fill="#517998" d="M6 32h8v4H6zm17 0h8v4h-8z"/><path fill="#d1b160" d="M20 26h15v2H20zm0-6h15v2H20z"/><path fill="#ac4955" d="M36 7c0 1.104-.896 2-2 2H24c-1.104 0-2-.896-2-2V5c0-1.104.896-2 2-2h10c1.104 0 2 .896 2 2v2z"/><path fill="#515253" d="M26 9h2v3h-2zm4 0h2v3h-2z"/><path fill="#daa4af" d="M24 5h2v2h-2z"/><path fill="#ebebeb" d="M26 5h2v2h-2z"/><path fill="#daa4af" d="M28 5h2v2h-2z"/><path fill="#ebebeb" d="M30 5h2v2h-2z"/><path fill="#daa4af" d="M32 5h2v2h-2z"/></svg>