<svg viewBox="0 0 36 36" xmlns="http://www.w3.org/2000/svg"><g fill="#b27d39"><path d="m14.174 17.075-7.424-9.481-3.722 9.481z"/><path d="m17.938 5.534-6.563 12.389h13.125z"/><path d="m21.826 17.075 7.424-9.481 3.722 9.481z"/></g><path d="m28.669 15.19-4.782-11.667-5.88 11.668-.007.003-.007-.004-5.88-11.668-4.782 11.668c-3.134-4.357-6.051-7.148-6.051-7.148s1.72 12.708 1.72 24.958h30c0-12.25 1.72-24.958 1.72-24.958s-2.917 2.791-6.051 7.148z" fill="#d1b160"/><circle cx="17.957" cy="22" fill="#587447" r="3.688"/><circle cx="26.463" cy="22" fill="#8440b2" r="2.412"/><circle cx="32.852" cy="22" fill="#ac4955" r="1.986"/><circle cx="9.45" cy="22" fill="#8440b2" r="2.412"/><circle cx="3.061" cy="22" fill="#ac4955" r="1.986"/><path d="m33 34h-30c-.552 0-1-.447-1-1s.448-1 1-1h30c.553 0 1 .447 1 1s-.447 1-1 1zm0-3.486h-30c-.552 0-1-.447-1-1s.448-1 1-1h30c.553 0 1 .447 1 1s-.447 1-1 1z" fill="#cc994d"/><circle cx="1.447" cy="8.042" fill="#d1b160" r="1.407"/><circle cx="6.75" cy="7.594" fill="#b27d39" r="1.192"/><circle cx="12.113" cy="3.523" fill="#d1b160" r="1.784"/><circle cx="34.553" cy="8.042" fill="#d1b160" r="1.407"/><circle cx="29.25" cy="7.594" fill="#b27d39" r="1.192"/><circle cx="23.887" cy="3.523" fill="#d1b160" r="1.784"/><circle cx="17.938" cy="5.534" fill="#b27d39" r="1.784"/></svg>