<svg viewBox="0 0 36 36" xmlns="http://www.w3.org/2000/svg"><circle fill="#bdc5ca" cx="18" cy="6" r="6"/><path fill="#ebebeb" d="M11 12h14v21H11z"/><path fill="#ac4955" d="M11 28.487L20.251 33H25v-2.134l-14-6.83z"/><path fill="#649bc5" d="M11 19.585l14 6.83v-4.45l-14-6.831z"/><path fill="#ac4955" d="M13.697 12L25 17.514V12z"/><path fill="#919ca2" d="M27 11c0 1.104-.896 2-2 2H11c-1.104 0-2-.896-2-2s.896-2 2-2h14c1.104 0 2 .896 2 2zm0 23c0 1.104-.896 2-2 2H11c-1.104 0-2-.896-2-2s.896-2 2-2h14c1.104 0 2 .896 2 2z"/></svg>