<svg viewBox="0 0 36 36" xmlns="http://www.w3.org/2000/svg"><path d="m8 17h-8v15c0 2.209 1.791 4 4 4s4-1.791 4-4c0 2.209 1.791 4 4 4h20c2.209 0 4-1.791 4-4v-15z" fill="#272a2c"/><path d="m32 10h-20c-2.209 0-4 1.791-4 4 0-2.209-1.791-4-4-4s-4 1.791-4 4v15c0 2.209 1.791 4 4 4s4-1.791 4-4c0 2.209 1.791 4 4 4h20c2.209 0 4-1.791 4-4v-15c0-2.209-1.791-4-4-4z" fill="#636a6f"/><path d="m21 16c0 1.104-.896 2-2 2h-7c-1.104 0-2-.896-2-2v-2c0-1.104.896-2 2-2h7c1.104 0 2 .896 2 2z" fill="#b7ceaa"/><g fill="#bdc5ca"><circle cx="11.5" cy="21.5" r="1.5"/><circle cx="15.5" cy="21.5" r="1.5"/><circle cx="19.5" cy="21.5" r="1.5"/><circle cx="11.5" cy="25.5" r="1.5"/><circle cx="15.5" cy="25.5" r="1.5"/><circle cx="19.5" cy="25.5" r="1.5"/><circle cx="11.5" cy="29.5" r="1.5"/><circle cx="15.5" cy="29.5" r="1.5"/><circle cx="19.5" cy="29.5" r="1.5"/></g><path d="m34 21c0 .553-.447 1-1 1h-9c-.553 0-1-.447-1-1s.447-1 1-1h9c.553 0 1 .447 1 1zm0 3c0 .553-.447 1-1 1h-9c-.553 0-1-.447-1-1s.447-1 1-1h9c.553 0 1 .447 1 1zm0 3c0 .553-.447 1-1 1h-9c-.553 0-1-.447-1-1s.447-1 1-1h9c.553 0 1 .447 1 1zm0 3c0 .553-.447 1-1 1h-9c-.553 0-1-.447-1-1s.447-1 1-1h9c.553 0 1 .447 1 1z" fill="#919ca2"/><g fill="#bdc5ca"><circle cx="25" cy="15" r="2"/><circle cx="32" cy="15" r="2"/><path d="m32 10h-20v-6c0-2.209 1.791-4 4-4h12c2.209 0 4 1.791 4 4z"/></g><path d="m30 4c0 .553-.447 1-1 1h-14c-.553 0-1-.447-1-1s.447-1 1-1h14c.553 0 1 .447 1 1zm-8 3c0 .553-.447 1-1 1h-6c-.553 0-1-.447-1-1s.447-1 1-1h6c.553 0 1 .447 1 1z" fill="#919ca2"/></svg>