<svg viewBox="0 0 36 36" xmlns="http://www.w3.org/2000/svg"><path d="m0 10s0-4 4-4h28s4 0 4 4v18s0 4-4 4h-28s-4 0-4-4z" fill="#2f3235"/><circle cx="21" cy="19" fill="#bdc5ca" r="10"/><circle cx="21" cy="19" fill="#2f3235" r="8"/><circle cx="21" cy="19" fill="#517998" r="5"/><circle cx="32.5" cy="9.5" fill="#ebebeb" r="1.5"/><path d="m16 9 3-6-6 2-4-5-2 5-6-1 4 6-5 4h6l-2 6 6-3 6 5-1-8 6-1z" fill="#cc994d"/><path d="m10 14-3 2 1-3-3-1 3-2-3-3h4l1-3 2 3 3-1-2 3 3 3-3 1 1 4z" fill="#ebebeb"/></svg>