<svg viewBox="0 0 36 36" xmlns="http://www.w3.org/2000/svg"><path fill="#2f3235" d="M0 10s0-4 4-4h28s4 0 4 4v18s0 4-4 4H4s-4 0-4-4V10z" /><circle fill="#bdc5ca" cx="21" cy="19" r="10" /><circle fill="#2f3235" cx="21" cy="19" r="8" /><circle fill="#517998" cx="21" cy="19" r="5" /><circle fill="#ebebeb" cx="32.5" cy="9.5" r="1.5" /><path fill="#cc994d" d="M16 9l3-6-6 2-4-5-2 5-6-1 4 6-5 4h6l-2 6 6-3 6 5-1-8 6-1z" /><path fill="#ebebeb" d="M10 14l-3 2 1-3-3-1 3-2-3-3h4l1-3 2 3 3-1-2 3 3 3-3 1 1 4z" /></svg>