<svg viewBox="0 0 36 36" xmlns="http://www.w3.org/2000/svg"><path d="m35 20c0 2.209-1.791 2-4 2h-26c-2.209 0-4 .209-4-2l2-12c.125-1.917 1.791-4 4-4h22c2.209 0 3.791 2.208 4 4z" fill="#646b70"/><path d="m28 13c0 1.104-.896 2-2 2h-16c-1.104 0-2-.896-2-2v-8c0-1.105.896-2 2-2h16c1.104 0 2 .895 2 2z" fill="#bdc5ca"/><path d="m30 17c0 1.104-.896 2-2 2h-20c-1.104 0-2-.896-2-2v-8c0-1.104.896-2 2-2h20c1.104 0 2 .896 2 2z" fill="#cfd5da"/><path d="m32 21c0 1.104-.896 2-2 2h-24c-1.104 0-2-.896-2-2v-8c0-1.104.896-2 2-2h24c1.104 0 2 .896 2 2z" fill="#dfe4e9"/><path d="m35 31c0 2.209-1.791 4-4 4h-26c-2.209 0-4-1.791-4-4v-11c0-2.209 1.791-4 4-4h26c2.209 0 4 1.791 4 4z" fill="#919ca2"/><path d="m22 1h-5c-1.104 0-2 .895-2 2v1h4c1.104 0 2 .896 2 2h1c1.104 0 2-.896 2-2v-1c0-1.105-.896-2-2-2z" fill="#cc9956"/><path d="m18 5h-5c-1.104 0-2 .896-2 2v1h4c1.104 0 2 .896 2 2h1c1.104 0 2-.896 2-2v-1c0-1.104-.896-2-2-2z" fill="#699cc5"/><path d="m16 12c0 1.104-.896 2-2 2h-5c-1.104 0-2-.896-2-2v-1c0-1.104.896-2 2-2h5c1.104 0 2 .896 2 2z" fill="#c06775"/><path d="m25 28c0 1.104-.896 2-2 2h-10c-1.104 0-2-.896-2-2v-5c0-1.104.896-2 2-2h10c1.104 0 2 .896 2 2z" fill="#646b70"/><path d="m23 27c0 .553-.447 1-1 1h-8c-.552 0-1-.447-1-1v-3c0-.553.448-1 1-1h8c.553 0 1 .447 1 1z" fill="#cfd5da"/></svg>