<svg viewBox="0 0 36 36" xmlns="http://www.w3.org/2000/svg"><path d="m31 15c0 1.104-.896 2-2 2h-22c-1.104 0-2-.896-2-2v-8c0-1.104.896-2 2-2h22c1.104 0 2 .896 2 2z" fill="#d2b167"/><path d="m33 19c0 1.104-.896 2-2 2h-26c-1.104 0-2-.896-2-2v-8c0-1.104.896-2 2-2h26c1.104 0 2 .896 2 2z" fill="#dcc28a"/><path d="m35 33c0 1.104-.896 2-2 2h-30c-1.104 0-2-.896-2-2v-18c0-1.104.896-2 2-2h30c1.104 0 2 .896 2 2z" fill="#e6d4ad"/><path d="m23 3h-5c-1.104 0-2 .895-2 2v1h2c1.104 0 2 .896 2 2h3c1.104 0 2-.896 2-2v-1c0-1.105-.896-2-2-2z" fill="#739261"/><path d="m17 7h-5c-1.104 0-2 .896-2 2v1h2c1.104 0 2 .896 2 2h3c1.104 0 2-.896 2-2v-1c0-1.104-.896-2-2-2z" fill="#be8342"/><path d="m13 14c0 1.104-.896 2-2 2h-5c-1.104 0-2-.896-2-2v-1c0-1.104.896-2 2-2h5c1.104 0 2 .896 2 2z" fill="#886eab"/></svg>