<svg viewBox="0 0 36 36" xmlns="http://www.w3.org/2000/svg"><path d="m0 34h36v2h-36z" fill="#88898b"/><path d="m10 32c0-1.657-1.344-3-3-3s-3 1.343-3 3 1.343 3 3 3 3-1.343 3-3z" fill="#515253"/><path d="m9 32c0-1.105-.896-2-2-2s-2 .895-2 2 .896 2 2 2 2-.895 2-2z" fill="#272a2c"/><circle cx="29" cy="32" fill="#515253" r="3"/><circle cx="29" cy="32" fill="#272a2c" r="2"/><path d="m34 2h-32c-.552 0-1-.448-1-1s.448-1 1-1h32c.553 0 1 .448 1 1s-.447 1-1 1z" fill="#d4d5d5"/><path d="m22.998 4.944c-.016-.284-.151-.548-.373-.726l-3.683-2.945c.087-.302.049-.635-.162-.898-.314-.394-.859-.468-1.281-.221-.42-.248-.966-.174-1.281.221-.211.264-.25.597-.162.898l-3.682 2.945c-.222.178-.358.441-.374.726-.016.284.09.561.291.762l3.835 3.834c-.198.377-.152.848.165 1.165.197.197.453.295.709.295.176 0 .344-.063.5-.155.156.091.324.155.5.155.256 0 .512-.098.707-.293.317-.317.363-.788.165-1.165l3.835-3.835c.201-.202.308-.479.291-.763zm-5.498 3.141-3.003-3.003 3.003-2.402 3.003 2.403z" fill="#636a6f"/><path d="m30 10c0 1.104-.896 2-2 2h-20c-1.104 0-2-.896-2-2s.896-2 2-2h20c1.104 0 2 .896 2 2z" fill="#adafb0"/><path d="m36 22c0 2.209-1.791 4-4 4h-28c-2.209 0-4-1.791-4-4v-8c0-2.209 1.791-4 4-4h28c2.209 0 4 1.791 4 4zm-36 6h36v4h-36z" fill="#d4d5d5"/><path d="m0 14h36v14h-36z" fill="#8d3744"/><path d="m36 14h-36v10h6v6h7v-6h10v6h7v-6h6z" fill="#ac4955"/><path d="m2 16h-2v10h2c1.104 0 2-.896 2-2v-6c0-1.104-.896-2-2-2zm34 0h-2c-1.104 0-2 .896-2 2v6c0 1.104.896 2 2 2h2zm-15 6c0 .553-.448 1-1 1h-4c-.553 0-1-.447-1-1v-4c0-.553.448-1 1-1h4c.552 0 1 .447 1 1zm-9 1c0 .553-.448 1-1 1h-3c-.552 0-1-.447-1-1v-5c0-.552.448-1 1-1h3c.552 0 1 .448 1 1zm17 0c0 .553-.447 1-1 1h-3c-.553 0-1-.447-1-1v-5c0-.552.447-1 1-1h3c.553 0 1 .448 1 1z" fill="#649bc5"/><path d="m0 28h36v2h-36z" fill="#73222f"/></svg>