<svg viewBox="0 0 36 36" xmlns="http://www.w3.org/2000/svg"><path d="m0 34h36v2h-36z" fill="#88898b"/><path d="m8 32c0-1.657-1.344-3-3-3s-3 1.343-3 3 1.343 3 3 3 3-1.343 3-3z" fill="#515253"/><path d="m7 32c0-1.105-.896-2-2-2s-2 .895-2 2 .896 2 2 2 2-.895 2-2z" fill="#272a2c"/><path d="m16 32c0-1.657-1.344-3-3-3s-3 1.343-3 3 1.343 3 3 3 3-1.343 3-3z" fill="#515253"/><path d="m15 32c0-1.105-.896-2-2-2s-2 .895-2 2 .896 2 2 2 2-.895 2-2z" fill="#272a2c"/><circle cx="32" cy="32" fill="#515253" r="3"/><circle cx="32" cy="32" fill="#272a2c" r="2"/><circle cx="24" cy="32" fill="#515253" r="3"/><circle cx="24" cy="32" fill="#272a2c" r="2"/><path d="m0 28h36v4h-36z" fill="#587447"/><path d="m0 16h36v12h-36z" fill="#e6d4ac"/><path d="m0 26h36v2h-36z" fill="#cc994d"/><path d="m32.555 14h-29.11c-1.476 0-2.752.81-3.445 2h36c-.693-1.19-1.969-2-3.445-2z" fill="#72925f"/><path d="m5 22c0 .553-.447 1-1 1h-2c-.552 0-1-.447-1-1v-2c0-.553.448-1 1-1h2c.553 0 1 .447 1 1zm6 0c0 .553-.447 1-1 1h-2c-.552 0-1-.447-1-1v-2c0-.553.448-1 1-1h2c.553 0 1 .447 1 1zm6 0c0 .553-.447 1-1 1h-2c-.553 0-1-.447-1-1v-2c0-.553.447-1 1-1h2c.553 0 1 .447 1 1zm6 0c0 .553-.447 1-1 1h-2c-.553 0-1-.447-1-1v-2c0-.553.447-1 1-1h2c.553 0 1 .447 1 1zm6 0c0 .553-.447 1-1 1h-2c-.553 0-1-.447-1-1v-2c0-.553.447-1 1-1h2c.553 0 1 .447 1 1zm6 0c0 .553-.447 1-1 1h-2c-.553 0-1-.447-1-1v-2c0-.553.447-1 1-1h2c.553 0 1 .447 1 1z" fill="#649bc5"/></svg>