<svg viewBox="0 0 36 36" xmlns="http://www.w3.org/2000/svg"><path d="m0 34h36v2h-36z" fill="#88898b"/><path d="m6 27h29v5h-29z" fill="#1f1d1d"/><circle cx="6.999" cy="32" fill="#515253" r="3"/><circle cx="12.999" cy="32" fill="#515253" r="3"/><circle cx="6.999" cy="32" fill="#73222f" r="1.5"/><circle cx="12.999" cy="32" fill="#73222f" r="1.5"/><path d="m5 33h-4c-1 0-1.5-.5 0-2l4-4c1-1 2-2.001 2 0v4c0 2-.001 2-2 2z" fill="#ac4955"/><path d="m8 20c0 3.313-1.343 6-3 6s-3-2.687-3-6c0-3.314 1.343-6 3-6s3 2.686 3 6z" fill="#1f1d1d"/><path d="m11 15h-4l-2-8h8z" fill="#656567"/><path d="m26 25c0 1.104-.896 2-2 2h-18c-1.104 0-2-.896-2-2v-10c0-1.104.896-2 2-2h18c1.104 0 2 .896 2 2z" fill="#3c3b3c"/><path d="m13 26c0 .553-.448 1-1 1s-1-.447-1-1v-13c0-.552.448-1 1-1s1 .448 1 1zm6 0c0 .553-.447 1-1 1s-1-.447-1-1v-13c0-.552.447-1 1-1s1 .448 1 1z" fill="#9e6a5b"/><path d="m36 26c0 .553-.447 1-1 1h-28c-.552 0-1-.447-1-1s.448-1 1-1h28c.553 0 1 .447 1 1z" fill="#767879"/><circle cx="29.999" cy="31" fill="#515253" r="4"/><circle cx="21.999" cy="31" fill="#515253" r="4"/><circle cx="29.999" cy="31" fill="#73222f" r="2"/><circle cx="21.999" cy="31" fill="#73222f" r="2"/><path d="m12 3h-6c-.552 0-1 .448-1 1v3h8v-3c0-.552-.448-1-1-1z" fill="#3c3b3c"/><path d="m23 7h12v18h-12z" fill="#8d3744"/><path d="m36 6c0 .552-.447 1-1 1h-12c-.553 0-1-.448-1-1s.447-1 1-1h12c.553 0 1 .448 1 1z" fill="#73222f"/><path d="m25 18h8v5h-8z" fill="#c26773"/><path d="m30 32h-8c-.127 0-.253-.024-.371-.071l-4.822-1.929h-6.807c-.552 0-1-.447-1-1s.448-1 1-1h7c.128 0 .253.024.372.071l4.82 1.929h7.808c.553 0 1 .447 1 1s-.447 1-1 1z" fill="#b27d39"/><path d="m33 10c0-.552-.447-1-1-1h-6c-.553 0-1 .448-1 1v5c0 .552.447 1 1 1h6c.553 0 1-.448 1-1z" fill="#649bc5"/></svg>