<svg viewBox="0 0 36 36" xmlns="http://www.w3.org/2000/svg"><path d="m0 22v6c0 1.657 1.343 3 3 3h30c1.657 0 3-1.343 3-3v-6z" fill="#72925f"/><path d="m15 12c-.226 0-.453-.076-.64-.232-.424-.354-.482-.984-.128-1.408 5.186-6.224 12.325-7.307 12.626-7.35.047-.007.095-.01.142-.01h3c.553 0 1 .448 1 1s-.447 1-1 1h-2.919c-.69.119-6.878 1.319-11.312 6.641-.198.237-.482.359-.769.359z" fill="#656567"/><path d="m11 9h14v4h-14z" fill="#9a9c9e"/><path d="m36 22v-8c0-1.657-1.343-3-3-3h-30c-1.657 0-3 1.343-3 3v8z" fill="#d4d5d5"/><path d="m0 22h36v2h-36zm7 3c-3.063 0-5.586 2.298-5.95 5.263.526.453 1.202.737 1.95.737h10c0-3.313-2.686-6-6-6zm27.95 5.263c-.364-2.965-2.887-5.263-5.95-5.263-3.313 0-6 2.687-6 6h10c.749 0 1.425-.284 1.95-.737z" fill="#587447"/><circle cx="7" cy="31" r="4"/><circle cx="7" cy="31" fill="#919ca2" r="2"/><circle cx="29" cy="31" r="4"/><circle cx="29" cy="31" fill="#919ca2" r="2"/><path d="m27 19c0 .553-.447 1-1 1h-3c-.553 0-1-.447-1-1v-3c0-.552.447-1 1-1h3c.553 0 1 .448 1 1zm7 0c0 .553-.447 1-1 1h-3c-.553 0-1-.447-1-1v-3c0-.552.447-1 1-1h3c.553 0 1 .448 1 1zm-21 0c0 .553-.448 1-1 1h-3c-.552 0-1-.447-1-1v-3c0-.552.448-1 1-1h3c.552 0 1 .448 1 1zm7 0c0 .553-.447 1-1 1h-3c-.552 0-1-.447-1-1v-3c0-.552.448-1 1-1h3c.553 0 1 .448 1 1zm-15-4h-5v7h5c.552 0 1-.447 1-1v-5c0-.552-.448-1-1-1z" fill="#649bc5"/><path d="m0 25h1v2h-1z" fill="#e6d4ac"/><path d="m35 25h1v2h-1z" fill="#c26773"/><path d="m35 22h1v2h-1z" fill="#daa4af"/></svg>