<svg viewBox="0 0 36 36" xmlns="http://www.w3.org/2000/svg"><path d="m0 35h36v-25s-6.001-10-9.001-10-9.999 9-11.999 11-4.5.5-6-1-3-3-4-3-5 7-5 7z" fill="#c1c2c3"/><path d="m0 34h36v2h-36z" fill="#88898b"/><circle cx="11" cy="32" fill="#515253" r="3"/><circle cx="11" cy="32" fill="#272a2c" r="2"/><path d="m22 32c0-1.657-1.344-3-3-3-1.657 0-3 1.343-3 3s1.343 3 3 3c1.656 0 3-1.343 3-3z" fill="#515253"/><path d="m21 32c0-1.105-.896-2-2-2s-2 .895-2 2 .896 2 2 2 2-.895 2-2z" fill="#272a2c"/><path d="m36 14h-29c-2.209 0-4 1.791-4 4v10c0 2.209 1.791 4 4 4h29z" fill="#e6d4ac"/><path d="m36 14h-29c-1.477 0-2.752.81-3.445 2h32.445z" fill="#72925f"/><path d="m36 28h-33c0 2.209 1.791 4 4 4h29z" fill="#587447"/><path d="m3 26h33v2h-33z" fill="#cc994d"/><path d="m3 19h6v5h-6zm12 3c0 .553-.447 1-1 1h-2c-.552 0-1-.447-1-1v-2c0-.553.448-1 1-1h2c.553 0 1 .447 1 1zm5 0c0 .553-.447 1-1 1h-2c-.552 0-1-.447-1-1v-2c0-.553.448-1 1-1h2c.553 0 1 .447 1 1zm7 0c0 .553-.447 1-1 1h-2c-.553 0-1-.447-1-1v-2c0-.553.447-1 1-1h2c.553 0 1 .447 1 1zm7 0c0 .553-.447 1-1 1h-2c-.553 0-1-.447-1-1v-2c0-.553.447-1 1-1h2c.553 0 1 .447 1 1z" fill="#649bc5"/><path d="m27.5 30h-5c-.827 0-1.5-.673-1.5-1.5v-10c0-.827.673-1.5 1.5-1.5h5c.827 0 1.5.673 1.5 1.5v10c0 .827-.673 1.5-1.5 1.5zm-5-12c-.275 0-.5.224-.5.5v10c0 .275.225.5.5.5h5c.275 0 .5-.225.5-.5v-10c0-.276-.225-.5-.5-.5z" fill="#636a6f"/></svg>