<svg viewBox="0 0 36 36" xmlns="http://www.w3.org/2000/svg"><path d="m7 25h22v9h-22zm0-11h22v9h-22zm0-11h22v10h-22z" fill="#517998"/><path d="m30 3.178c0 .454-.368.822-.822.822h-22.356c-.454 0-.822-.368-.822-.822v-.356c0-.454.368-.822.822-.822h22.355c.455 0 .823.368.823.822zm0 11c0 .454-.368.822-.822.822h-22.356c-.454 0-.822-.368-.822-.822v-.355c0-.455.368-.823.822-.823h22.355c.455 0 .823.368.823.822zm0 10c0 .454-.368.822-.822.822h-22.356c-.454 0-.822-.368-.822-.822v-.355c0-.455.368-.823.822-.823h22.355c.455 0 .823.368.823.822zm0 11c0 .454-.368.822-.822.822h-22.356c-.454 0-.822-.368-.822-.822v-.355c0-.455.368-.823.822-.823h22.355c.455 0 .823.368.823.822z" fill="#365a75"/><path d="m26 1.128c0 .481-.391.872-.872.872h-2.256c-.481 0-.872-.391-.872-.872v-.256c0-.481.391-.872.872-.872h2.256c.481 0 .872.391.872.872z" fill="#919ca2"/></svg>