<svg viewBox="0 0 36 36" xmlns="http://www.w3.org/2000/svg"><path d="m25.5 28c4.143 0 7.5-3.358 7.5-7.5s-3.357-7.5-7.5-7.5c-1.359 0-2.631.367-3.73 1h-.21c2.047-1.217 3.423-3.445 3.423-6 0-3.857-3.126-6.984-6.983-6.984s-6.984 3.127-6.984 6.984c0 2.555 1.376 4.783 3.423 6h-.208c-1.1-.633-2.371-1-3.731-1-4.142 0-7.5 3.358-7.5 7.5s3.358 7.5 7.5 7.5c2.155 0 4.091-.914 5.46-2.368-.411 4.121-4.755 7.368-8.96 7.368h.5c-.829 0-1.5.672-1.5 1.5s.671 1.5 1.5 1.5h21c.828 0 1.5-.672 1.5-1.5s-.672-1.5-1.5-1.5h.5c-4.205 0-8.549-3.248-8.959-7.369 1.367 1.455 3.305 2.369 5.459 2.369z" fill="#2f3235"/></svg>