<svg viewBox="0 0 36 36" xmlns="http://www.w3.org/2000/svg"><path d="m16 34.375c0 .553-.448 1-1 1s-1-.447-1-1v-8.375c0-.553.448-1 1-1s1 .447 1 1z" fill="#646b70"/><circle cx="15.41" cy="15.625" fill="#cfd5da" r="13.873"/><path d="m3.592 16.139c.232 6.334 5.427 11.402 11.818 11.402s11.586-5.068 11.818-11.402z" fill="#5f95be"/><path d="m30 24c0 1.104-.896 2-2 2h-25c-1.104 0-2-.896-2-2s.896-2 2-2h25c1.104 0 2 .896 2 2z" fill="#646b70"/><path d="m2.622 35.207c-.186.521-.758.791-1.278.605s-.791-.758-.605-1.278l3.317-9.262c.186-.52.758-.791 1.278-.605s.792.758.605 1.278zm25.757 0c.185.521.758.791 1.277.605.52-.186.791-.758.605-1.278l-3.359-9.345c-.185-.521-.758-.791-1.277-.606-.52.186-.791.758-.605 1.278z" fill="#646b70"/><path d="m19.006 2.266s13.354 4.682 14.772 5.138c3.725 1.199 2.184 5.224-.385 4.582-5.083-1.271-14.387-4.068-15.415-4.068s1.028-5.652 1.028-5.652z" fill="#cfd5da"/><path d="m29 23c0 .553-.447 1-1 1h-25c-.552 0-1-.447-1-1s.448-1 1-1h25c.553 0 1 .447 1 1z" fill="#919ca2"/><ellipse cx="15.41" cy="16.139" fill="#4e85af" rx="11.818" ry="1.629"/><ellipse cx="34.047" cy="9.982" fill="#9fa9af" rx="1.341" ry=".974" transform="matrix(.26950813 -.96299811 .96299811 .26950813 15.259372 40.078236)"/></svg>