<svg viewBox="0 0 36 36" xmlns="http://www.w3.org/2000/svg"><path d="m20 26c0 .553-.447 1-1 1-.552 0-1-.447-1-1v-25c0-.552.448-1 1-1 .553 0 1 .448 1 1z" fill="#9a9c9e"/><path d="m3 24h31v8h-22c-6 0-9-8-9-8z" fill="#c1c2c3"/><path d="m0 30h36v6h-36z" fill="#649bc5"/><path d="m5 22s2-5 5-9 8-8 8-8-1 11-1 16v1s-3-1-6-1-6 1-6 1z" fill="#cc994d"/><path d="m20 2s6 6 9 11c2.771 4.618 4 9 4 9s-3-1-6-1-6 1-6 1v-1c0-9-1-19-1-19z" fill="#b27d39"/><path d="m2 24c-.552 0-1 .447-1 1s.448 1 1 1h33v-2z" fill="#d4d5d5"/></svg>